<svg xmlns="http://www.w3.org/2000/svg" width="40" height="40" viewBox="0 0 40 40">
    <defs>
        <!-- Angular v17+ pink-purple gradient -->
        <linearGradient id="angularGradient" x1="0%" y1="0%" x2="100%" y2="100%">
            <stop offset="0%" stop-color="#C3002F"/>
            <stop offset="50%" stop-color="#DD0031"/>
            <stop offset="100%" stop-color="#9C27B0"/>
        </linearGradient>
    </defs>

    <!-- Transparent padding -->
    <rect width="40" height="40" fill="none"/>

    <g transform="translate(2,2)">
        <!-- Angular shield -->
        <path d="M18 0 L34 9 L30 30 L18 36 L6 30 L2 9 Z" fill="url(#angularGradient)"/>

        <!-- Chat bubble -->
        <path d="M11 11 h14 a3 3 0 0 1 3 3 v7 a3 3 0 0 1 -3 3 h-7 l-3 3 -1-3 h-3 a3 3 0 0 1 -3 -3 v-7 a3 3 0 0 1 3 -3 z"
              fill="rgba(255,255,255,0.95)"/>

        <!-- Globe inside bubble -->

        <!-- Subtle light overlay -->
        <path d="M18 1.5 L33 9.5 L29.5 29 L18 34.5 L6.5 29 L3 9.5 Z"
              fill="rgba(255,255,255,0.08)"/>
    </g>
</svg>
