<?xml version="1.0" encoding="UTF-8" standalone="no"?>
<svg
        width="40"
        height="40"
        viewBox="0 0 40 40"
        version="1.1"
        id="svg5"
        xmlns="http://www.w3.org/2000/svg"
>
    <defs id="defs3">
        <linearGradient
                id="angularGradient"
                x1="2.1213202"
                y1="0"
                x2="36.062447"
                y2="33.941124"
                gradientTransform="matrix(1.0606602,0,0,1.0606602,-0.25,2)"
                gradientUnits="userSpaceOnUse">
            <stop
                    offset="0"
                    stop-color="#C3002F"
                    id="stop1"
                    style="stop-color:#f10022;stop-opacity:1;"/>
            <stop
                    offset="0.49503723"
                    stop-color="#DD0031"
                    id="stop2"
                    style="stop-color:#d9008d;stop-opacity:1;"/>
            <stop
                    offset="1"
                    stop-color="#9C27B0"
                    id="stop3"
                    style="stop-color:#7f27b0;stop-opacity:1;"/>
        </linearGradient>
    </defs>
    <rect
            width="40"
            height="40"
            fill="none"
            id="rect3"
            x="0"
            y="0"
            style="display:inline"/>
    <path
            d="M 20,2 38,9.4436617 33.5,32 20,38 6.5,32 2,9.0042293 Z"
            fill="url(#angularGradient)"
            id="path3"
            style="display:inline;fill:url(#angularGradient);stroke-width:1.06066"/>
    <path
            id="path1"
            style="fill:#ffffff;fill-opacity:1;stroke-width:1.4"
            d="M 20.110871,8.5653912 C 14.20971,8.5656712 9.4259452,13.349437 9.4256647,19.250598 c 3.6e-5,2.244456 0.7068033,4.431918 2.0200423,6.252079 -0.78421,1.941546 -1.9785338,3.999266 -1.6574314,3.980502 1.1719884,-0.06849 3.7160734,-0.817453 4.4544154,-1.302345 1.742906,1.145068 3.782778,1.755123 5.86818,1.754969 C 26.01203,29.935521 30.795794,25.151757 30.796076,19.250598 30.795795,13.349438 26.012031,8.5656732 20.110871,8.5653912 Z m -0.01829,3.7910098 c 0.0063,-7.93e-4 0.01403,-10e-7 0.02057,0 3.808406,-5.42e-4 6.89187,3.167224 6.891912,7.038158 -4.1e-5,3.870934 -3.083506,7.038701 -6.891912,7.038159 -3.808404,5.41e-4 -6.896441,-3.167225 -6.896481,-7.038159 4e-5,-3.78614 2.968174,-6.856065 6.661115,-6.990171 l 0.05484,-0.04569 0.03199,0.02743 c 0.04554,-10e-4 0.08391,-0.02417 0.127962,-0.0297 z m 1.480755,1.700125 c 0.598541,0.735455 1.06968,1.496886 1.387067,2.289688 0.02896,2.59e-4 0.04919,-2.57e-4 0.07771,0 0.520971,0.0048 1.05249,0.0095 1.400777,0.01371 0.103883,0.0014 0.103896,0.0013 0.187379,0.0023 -0.717353,-1.122188 -1.763596,-1.934574 -3.052916,-2.305682 z m -3.361406,0.08912 c -1.087365,0.412809 -1.94497,1.191414 -2.582182,2.164005 0.417996,5.6e-4 0.836163,0.0012 1.247675,0.0023 v -0.0023 h 0.08227 c 0.285928,-0.74851 0.708454,-1.46927 1.252242,-2.164005 z m 1.722977,0.319916 c -0.564265,0.587936 -0.954269,1.211915 -1.261383,1.85323 0.920853,0.0043 1.764527,0.0081 2.552476,0.01371 -0.322713,-0.644432 -0.720354,-1.27351 -1.291093,-1.866942 z m -4.988409,3.244866 c -0.166915,0.540243 -0.331335,1.085034 -0.331341,1.68413 7e-6,0.788703 0.158991,1.537099 0.441028,2.216565 0.498369,-0.0021 0.987082,-0.0014 1.478471,-0.0023 v -0.0023 h 0.13482 c -0.278226,-1.207151 -0.324682,-2.517651 -0.06398,-3.882412 l -0.159958,-0.0047 c -0.486275,-0.004 -0.96574,-0.0044 -1.499036,-0.0091 z m 3.048346,0.02285 c -0.306105,1.34282 -0.233792,2.68509 0.08227,3.873272 1.469232,-0.0014 2.808715,9.32e-4 3.9304,0.0047 0.260076,-1.180347 0.288473,-2.508697 -0.05712,-3.850421 -1.026683,-0.0067 -2.341991,-0.01441 -3.955537,-0.02743 z m 5.516272,0.03885 v 0.0023 h -0.162244 c 0.288646,1.350121 0.290061,2.646957 0.0617,3.838996 h 0.123399 v 0.0047 c 0.251874,0.0015 0.577936,7.46e-4 0.767799,0.0023 0.416891,0.0035 0.611554,0.0035 0.756374,0.0115 0.0091,5.6e-4 0.01744,1.84e-4 0.03885,0.0023 0.0096,9.8e-4 0.043,0.0057 0.05028,0.0068 0.290908,-0.688332 0.4593,-1.444551 0.459308,-2.24627 -7e-6,-0.575703 -0.16302,-1.098316 -0.317631,-1.620147 -0.03514,0.0015 -0.05774,0.0042 -0.09826,0.0047 -0.09231,8.56e-4 -0.244315,3.16e-4 -0.463879,0 -0.243654,-2.8e-4 -0.794121,-0.0049 -1.215682,-0.0068 z m -7.527174,5.244343 c 0.528916,0.635272 1.149626,1.171737 1.903503,1.515033 -0.294964,-0.44829 -0.569353,-0.936818 -0.795222,-1.508178 -0.0299,-1.17e-4 -0.06359,1.19e-4 -0.09368,0 -0.319032,-0.0013 -0.673617,-0.0054 -1.014591,-0.0068 z m 2.669016,0.0115 c 0.219684,0.444175 0.417075,0.969555 0.655828,1.261385 0.413404,0.505311 0.813598,0.666272 0.863775,0.664968 v -0.0023 c 0.0339,-0.01011 0.397924,-0.174358 0.756373,-0.658114 0.216842,-0.292648 0.390218,-0.81222 0.58499,-1.256814 -0.785244,-0.0015 -1.745133,-0.0054 -2.860966,-0.0091 z m 5.5734,0.0091 c -0.265842,6.99e-4 -0.662755,0.0025 -1.094571,0.0023 -0.03769,-1.8e-5 -0.05695,2.5e-5 -0.09597,0 -0.197995,0.560926 -0.435506,1.052992 -0.701531,1.494467 0.74779,-0.340262 1.365136,-0.868869 1.892077,-1.496752 z"/>
</svg>
