<?xml version="1.0" encoding="UTF-8" standalone="no"?>
<svg
        width="40"
        height="40"
        viewBox="0 0 40 40"
        version="1.1"
        id="svg5"
        xmlns="http://www.w3.org/2000/svg"
>
    <defs
            id="defs3">
    </defs>
    <rect
            width="40"
            height="40"
            fill="none"
            id="rect3"
            x="0"
            y="0"
            style="display:inline;fill:none;fill-opacity:1;stroke:none;stroke-opacity:1"/>
    <path
            d="M 20,2 36,9.4436617 32,32 20,38 8,32 4,9.0042293 Z"
            fill="url(#angularGradient)"
            id="path3"
            style="display:none;fill:none;stroke:#101010;stroke-width:1;stroke-opacity:1"/>
    <path
            id="path1"
            style="fill:#6c707e;fill-opacity:1;stroke-width:2.3584"
            d="M 20.000001,2 C 10.05907,2.0004716 2.0004725,10.05907 2,20.000001 2.0000607,23.78095 3.1906612,27.465888 5.4029065,30.532079 4.0818486,33.802754 2.0699241,37.269132 2.6108442,37.237523 4.5851434,37.122147 8.8708388,35.860463 10.11463,35.043628 13.050679,36.972578 16.486991,38.00026 20.000001,38 29.94093,37.999525 37.999524,29.94093 38,20.000001 37.999525,10.059072 29.940931,2.000475 20.000001,2 Z m -0.03081,6.3862289 c 0.01059,-0.00137 0.02364,-1.2e-6 0.03465,0 6.415534,-9.133e-4 11.609851,5.3354171 11.609923,11.8562851 -6.8e-5,6.520867 -5.194389,11.8572 -11.609923,11.856287 C 13.588305,32.099712 8.3862847,26.763381 8.3862175,20.242514 8.3862847,13.86449 13.386321,8.6929784 19.607346,8.4670666 l 0.09238,-0.076962 0.05388,0.046207 c 0.07671,-0.00171 0.141352,-0.040718 0.215561,-0.050033 z m 2.494439,2.8639841 c 1.008285,1.238926 1.801953,2.521613 2.336614,3.857145 0.04879,4.36e-4 0.08286,-4.34e-4 0.130908,0 0.877613,0.0081 1.772995,0.016 2.35971,0.02309 0.174997,0.0024 0.17502,0.0023 0.315653,0.0039 -1.208428,-1.890405 -2.970901,-3.258927 -5.142853,-3.884086 z m -5.662531,0.150128 c -1.831746,0.695409 -3.276442,2.007024 -4.349872,3.645424 0.704145,9.43e-4 1.408577,0.002 2.101798,0.0039 v -0.0039 h 0.138591 c 0.481666,-1.260919 1.193441,-2.475092 2.109491,-3.645424 z m 2.902478,0.538922 c -0.950545,0.99042 -1.607534,2.041559 -2.12489,3.1219 1.551244,0.0073 2.972473,0.01364 4.299829,0.02309 -0.543632,-1.085594 -1.213487,-2.14532 -2.174939,-3.144999 z m -8.403334,5.466211 c -0.281181,0.910078 -0.558158,1.827818 -0.558167,2.837039 10e-6,1.328627 0.267831,2.589353 0.742944,3.733963 0.839537,-0.0035 1.662809,-0.0024 2.49059,-0.0039 v -0.0039 h 0.227114 C 13.734031,21.9352 13.655774,19.727568 14.094939,17.42853 l -0.26946,-0.0079 c -0.819167,-0.0067 -1.62686,-0.0074 -2.525235,-0.01533 z m 5.135158,0.0385 c -0.515655,2.262076 -0.393839,4.523227 0.138591,6.524806 2.475027,-0.0024 4.731482,0.0016 6.621041,0.0079 0.438117,-1.98838 0.485955,-4.22608 -0.09623,-6.486312 -1.729521,-0.01127 -3.945252,-0.02426 -6.663386,-0.04621 z m 9.292559,0.06545 v 0.0039 h -0.27331 c 0.486245,2.274375 0.488628,4.458989 0.103936,6.467064 h 0.207874 v 0.0079 c 0.4243,0.0025 0.973576,0.0013 1.293413,0.0039 0.702283,0.0059 1.030207,0.0059 1.274167,0.01937 0.01533,9.43e-4 0.02938,3.1e-4 0.06545,0.0039 0.01618,0.0016 0.07243,0.0096 0.08469,0.01149 0.490056,-1.159544 0.773725,-2.43345 0.773739,-3.784003 -1.2e-5,-0.969812 -0.274619,-1.850192 -0.535073,-2.729254 -0.05919,0.0025 -0.09726,0.0072 -0.165527,0.0079 -0.155503,0.0015 -0.411565,5.33e-4 -0.781437,0 -0.410453,-4.72e-4 -1.337754,-0.0082 -2.047903,-0.01149 z m -12.68007,8.834474 c 0.890997,1.070162 1.936629,1.973875 3.206588,2.552182 -0.496888,-0.755176 -0.959116,-1.578137 -1.339609,-2.540634 -0.05036,-1.97e-4 -0.107124,2.01e-4 -0.15781,0 -0.537433,-0.0023 -1.134757,-0.0091 -1.709151,-0.01149 z m 4.49615,0.01937 c 0.370073,0.748245 0.702593,1.633286 1.104789,2.124894 0.696409,0.851233 1.370565,1.122383 1.455092,1.120187 v -0.0039 c 0.0571,-0.01703 0.670331,-0.293719 1.274164,-1.10864 0.365287,-0.492987 0.657351,-1.368244 0.985458,-2.117194 -1.3228,-0.0025 -2.939801,-0.0091 -4.819503,-0.01533 z m 9.388794,0.01533 c -0.447829,0.0011 -1.116458,0.0042 -1.843884,0.0039 -0.06349,-3.1e-5 -0.09594,4.2e-5 -0.161668,0 -0.333536,0.94492 -0.733641,1.773841 -1.18178,2.517538 1.259706,-0.573197 2.299671,-1.463674 3.187341,-2.521388 z"/>
</svg>
